# xmcd
#
# Track frame offsets:
#	150
#	19666
#	34910
#	54330
#	71010
#	94818
#	106284
#	119209
#	131101
#	144855
#	158750
#	182046
#
# Disc length: 2727 seconds
#
# Revision: 0
# Processed by: cddbd v1.5.2PL0 Copyright (c) Steve Scherf et al.
# Submitted via: dBpowerAMP V4.0
#
DISCID=a70aa50c
DTITLE=House of Doc - East of West
DYEAR=2007
DGENRE=country rock
TTITLE0=Rain before the Fall
TTITLE1=Sweet City Woman
TTITLE2=Lullaby
TTITLE3=Buzzin' Bee
TTITLE4=Summerstone
TTITLE5=Simple Times
TTITLE6=Milk and Cookies
TTITLE7=Heav'n Bound Train
TTITLE8=Beware the Sun
TTITLE9=Flyin' with the King
TTITLE10=The Poet
TTITLE11=Secret Track
EXTD=
EXTT0=
EXTT1=
EXTT2=
EXTT3=
EXTT4=
EXTT5=
EXTT6=
EXTT7=
EXTT8=
EXTT9=
EXTT10=
EXTT11=
PLAYORDER=
